<mxfile host="Electron" modified="2023-06-13T17:04:53.835Z" agent="Mozilla/5.0 (Windows NT 10.0; Win64; x64) AppleWebKit/537.36 (KHTML, like Gecko) draw.io/21.2.8 Chrome/112.0.5615.165 Electron/24.2.0 Safari/537.36" etag="plc0d0o0tSgBsONIB4QL" version="21.2.8" type="device">
  <diagram name="페이지-1" id="XIp3JpswQZgiagemfZRV">
    <mxGraphModel dx="1098" dy="657" grid="1" gridSize="10" guides="1" tooltips="1" connect="1" arrows="1" fold="1" page="1" pageScale="1" pageWidth="827" pageHeight="1169" math="0" shadow="0">
      <root>
        <mxCell id="0" />
        <mxCell id="1" parent="0" />
        <mxCell id="CyxjTO3zzzVCpwui9LUG-38" value="bus_station" style="swimlane;fontStyle=2;childLayout=stackLayout;horizontal=1;startSize=26;horizontalStack=0;resizeParent=1;resizeParentMax=0;resizeLast=0;collapsible=1;marginBottom=0;align=center;fontSize=14;" parent="1" vertex="1">
          <mxGeometry x="290" y="300" width="160" height="176" as="geometry" />
        </mxCell>
        <mxCell id="CyxjTO3zzzVCpwui9LUG-39" value="&lt;u&gt;stat_id&lt;/u&gt;" style="text;strokeColor=none;fillColor=none;spacingLeft=4;spacingRight=4;overflow=hidden;rotatable=0;points=[[0,0.5],[1,0.5]];portConstraint=eastwest;fontSize=12;whiteSpace=wrap;html=1;" parent="CyxjTO3zzzVCpwui9LUG-38" vertex="1">
          <mxGeometry y="26" width="160" height="30" as="geometry" />
        </mxCell>
        <mxCell id="CyxjTO3zzzVCpwui9LUG-40" value="stat_name" style="text;strokeColor=none;fillColor=none;spacingLeft=4;spacingRight=4;overflow=hidden;rotatable=0;points=[[0,0.5],[1,0.5]];portConstraint=eastwest;fontSize=12;whiteSpace=wrap;html=1;" parent="CyxjTO3zzzVCpwui9LUG-38" vertex="1">
          <mxGeometry y="56" width="160" height="30" as="geometry" />
        </mxCell>
        <mxCell id="CyxjTO3zzzVCpwui9LUG-41" value="lat&lt;br&gt;" style="text;strokeColor=none;fillColor=none;spacingLeft=4;spacingRight=4;overflow=hidden;rotatable=0;points=[[0,0.5],[1,0.5]];portConstraint=eastwest;fontSize=12;whiteSpace=wrap;html=1;" parent="CyxjTO3zzzVCpwui9LUG-38" vertex="1">
          <mxGeometry y="86" width="160" height="30" as="geometry" />
        </mxCell>
        <mxCell id="CyxjTO3zzzVCpwui9LUG-49" value="lng" style="text;strokeColor=none;fillColor=none;spacingLeft=4;spacingRight=4;overflow=hidden;rotatable=0;points=[[0,0.5],[1,0.5]];portConstraint=eastwest;fontSize=12;whiteSpace=wrap;html=1;" parent="CyxjTO3zzzVCpwui9LUG-38" vertex="1">
          <mxGeometry y="116" width="160" height="30" as="geometry" />
        </mxCell>
        <mxCell id="CyxjTO3zzzVCpwui9LUG-50" value="geohash" style="text;strokeColor=none;fillColor=none;spacingLeft=4;spacingRight=4;overflow=hidden;rotatable=0;points=[[0,0.5],[1,0.5]];portConstraint=eastwest;fontSize=12;whiteSpace=wrap;html=1;" parent="CyxjTO3zzzVCpwui9LUG-38" vertex="1">
          <mxGeometry y="146" width="160" height="30" as="geometry" />
        </mxCell>
        <mxCell id="CyxjTO3zzzVCpwui9LUG-43" value="bus_last_time" style="swimlane;fontStyle=2;childLayout=stackLayout;horizontal=1;startSize=26;horizontalStack=0;resizeParent=1;resizeParentMax=0;resizeLast=0;collapsible=1;marginBottom=0;align=center;fontSize=14;" parent="1" vertex="1">
          <mxGeometry x="530" y="210" width="160" height="146" as="geometry" />
        </mxCell>
        <mxCell id="CyxjTO3zzzVCpwui9LUG-45" value="&lt;u&gt;route_id&lt;/u&gt;" style="text;strokeColor=none;fillColor=none;spacingLeft=4;spacingRight=4;overflow=hidden;rotatable=0;points=[[0,0.5],[1,0.5]];portConstraint=eastwest;fontSize=12;whiteSpace=wrap;html=1;" parent="CyxjTO3zzzVCpwui9LUG-43" vertex="1">
          <mxGeometry y="26" width="160" height="30" as="geometry" />
        </mxCell>
        <mxCell id="CyxjTO3zzzVCpwui9LUG-47" value="order" style="text;strokeColor=none;fillColor=none;spacingLeft=4;spacingRight=4;overflow=hidden;rotatable=0;points=[[0,0.5],[1,0.5]];portConstraint=eastwest;fontSize=12;whiteSpace=wrap;html=1;fontStyle=4" parent="CyxjTO3zzzVCpwui9LUG-43" vertex="1">
          <mxGeometry y="56" width="160" height="30" as="geometry" />
        </mxCell>
        <mxCell id="CyxjTO3zzzVCpwui9LUG-44" value="stat_id" style="text;strokeColor=none;fillColor=none;spacingLeft=4;spacingRight=4;overflow=hidden;rotatable=0;points=[[0,0.5],[1,0.5]];portConstraint=eastwest;fontSize=12;whiteSpace=wrap;html=1;" parent="CyxjTO3zzzVCpwui9LUG-43" vertex="1">
          <mxGeometry y="86" width="160" height="30" as="geometry" />
        </mxCell>
        <mxCell id="CyxjTO3zzzVCpwui9LUG-46" value="time" style="text;strokeColor=none;fillColor=none;spacingLeft=4;spacingRight=4;overflow=hidden;rotatable=0;points=[[0,0.5],[1,0.5]];portConstraint=eastwest;fontSize=12;whiteSpace=wrap;html=1;" parent="CyxjTO3zzzVCpwui9LUG-43" vertex="1">
          <mxGeometry y="116" width="160" height="30" as="geometry" />
        </mxCell>
        <mxCell id="CyxjTO3zzzVCpwui9LUG-51" value="bus_term" style="swimlane;fontStyle=2;childLayout=stackLayout;horizontal=1;startSize=26;horizontalStack=0;resizeParent=1;resizeParentMax=0;resizeLast=0;collapsible=1;marginBottom=0;align=center;fontSize=14;" parent="1" vertex="1">
          <mxGeometry x="290" y="90" width="160" height="176" as="geometry" />
        </mxCell>
        <mxCell id="CyxjTO3zzzVCpwui9LUG-53" value="&lt;u&gt;route_id&lt;/u&gt;" style="text;strokeColor=none;fillColor=none;spacingLeft=4;spacingRight=4;overflow=hidden;rotatable=0;points=[[0,0.5],[1,0.5]];portConstraint=eastwest;fontSize=12;whiteSpace=wrap;html=1;" parent="CyxjTO3zzzVCpwui9LUG-51" vertex="1">
          <mxGeometry y="26" width="160" height="30" as="geometry" />
        </mxCell>
        <mxCell id="CyxjTO3zzzVCpwui9LUG-52" value="route_name" style="text;strokeColor=none;fillColor=none;spacingLeft=4;spacingRight=4;overflow=hidden;rotatable=0;points=[[0,0.5],[1,0.5]];portConstraint=eastwest;fontSize=12;whiteSpace=wrap;html=1;" parent="CyxjTO3zzzVCpwui9LUG-51" vertex="1">
          <mxGeometry y="56" width="160" height="30" as="geometry" />
        </mxCell>
        <mxCell id="CyxjTO3zzzVCpwui9LUG-54" value="day" style="text;strokeColor=none;fillColor=none;spacingLeft=4;spacingRight=4;overflow=hidden;rotatable=0;points=[[0,0.5],[1,0.5]];portConstraint=eastwest;fontSize=12;whiteSpace=wrap;html=1;" parent="CyxjTO3zzzVCpwui9LUG-51" vertex="1">
          <mxGeometry y="86" width="160" height="30" as="geometry" />
        </mxCell>
        <mxCell id="CyxjTO3zzzVCpwui9LUG-56" value="sat" style="text;strokeColor=none;fillColor=none;spacingLeft=4;spacingRight=4;overflow=hidden;rotatable=0;points=[[0,0.5],[1,0.5]];portConstraint=eastwest;fontSize=12;whiteSpace=wrap;html=1;" parent="CyxjTO3zzzVCpwui9LUG-51" vertex="1">
          <mxGeometry y="116" width="160" height="30" as="geometry" />
        </mxCell>
        <mxCell id="CyxjTO3zzzVCpwui9LUG-57" value="holiday" style="text;strokeColor=none;fillColor=none;spacingLeft=4;spacingRight=4;overflow=hidden;rotatable=0;points=[[0,0.5],[1,0.5]];portConstraint=eastwest;fontSize=12;whiteSpace=wrap;html=1;" parent="CyxjTO3zzzVCpwui9LUG-51" vertex="1">
          <mxGeometry y="146" width="160" height="30" as="geometry" />
        </mxCell>
        <mxCell id="CyxjTO3zzzVCpwui9LUG-58" value="train_cost" style="swimlane;fontStyle=2;childLayout=stackLayout;horizontal=1;startSize=26;horizontalStack=0;resizeParent=1;resizeParentMax=0;resizeLast=0;collapsible=1;marginBottom=0;align=center;fontSize=14;" parent="1" vertex="1">
          <mxGeometry x="1038" y="360" width="160" height="116" as="geometry" />
        </mxCell>
        <mxCell id="CyxjTO3zzzVCpwui9LUG-59" value="&lt;u&gt;start_stat_name&lt;/u&gt;" style="text;strokeColor=none;fillColor=none;spacingLeft=4;spacingRight=4;overflow=hidden;rotatable=0;points=[[0,0.5],[1,0.5]];portConstraint=eastwest;fontSize=12;whiteSpace=wrap;html=1;" parent="CyxjTO3zzzVCpwui9LUG-58" vertex="1">
          <mxGeometry y="26" width="160" height="30" as="geometry" />
        </mxCell>
        <mxCell id="CyxjTO3zzzVCpwui9LUG-60" value="&lt;u&gt;end_stat_name&lt;/u&gt;" style="text;strokeColor=none;fillColor=none;spacingLeft=4;spacingRight=4;overflow=hidden;rotatable=0;points=[[0,0.5],[1,0.5]];portConstraint=eastwest;fontSize=12;whiteSpace=wrap;html=1;" parent="CyxjTO3zzzVCpwui9LUG-58" vertex="1">
          <mxGeometry y="56" width="160" height="30" as="geometry" />
        </mxCell>
        <mxCell id="CyxjTO3zzzVCpwui9LUG-61" value="cost" style="text;strokeColor=none;fillColor=none;spacingLeft=4;spacingRight=4;overflow=hidden;rotatable=0;points=[[0,0.5],[1,0.5]];portConstraint=eastwest;fontSize=12;whiteSpace=wrap;html=1;" parent="CyxjTO3zzzVCpwui9LUG-58" vertex="1">
          <mxGeometry y="86" width="160" height="30" as="geometry" />
        </mxCell>
        <mxCell id="CyxjTO3zzzVCpwui9LUG-64" value="train_route" style="swimlane;fontStyle=2;childLayout=stackLayout;horizontal=1;startSize=26;horizontalStack=0;resizeParent=1;resizeParentMax=0;resizeLast=0;collapsible=1;marginBottom=0;align=center;fontSize=14;" parent="1" vertex="1">
          <mxGeometry x="798" y="70" width="160" height="236" as="geometry" />
        </mxCell>
        <mxCell id="CyxjTO3zzzVCpwui9LUG-77" value="&lt;u&gt;route_name&lt;/u&gt;" style="text;strokeColor=none;fillColor=none;spacingLeft=4;spacingRight=4;overflow=hidden;rotatable=0;points=[[0,0.5],[1,0.5]];portConstraint=eastwest;fontSize=12;whiteSpace=wrap;html=1;" parent="CyxjTO3zzzVCpwui9LUG-64" vertex="1">
          <mxGeometry y="26" width="160" height="30" as="geometry" />
        </mxCell>
        <mxCell id="CyxjTO3zzzVCpwui9LUG-65" value="&lt;u&gt;train_id&lt;/u&gt;" style="text;strokeColor=none;fillColor=none;spacingLeft=4;spacingRight=4;overflow=hidden;rotatable=0;points=[[0,0.5],[1,0.5]];portConstraint=eastwest;fontSize=12;whiteSpace=wrap;html=1;" parent="CyxjTO3zzzVCpwui9LUG-64" vertex="1">
          <mxGeometry y="56" width="160" height="30" as="geometry" />
        </mxCell>
        <mxCell id="CyxjTO3zzzVCpwui9LUG-69" value="&lt;u&gt;way&lt;/u&gt;" style="text;strokeColor=none;fillColor=none;spacingLeft=4;spacingRight=4;overflow=hidden;rotatable=0;points=[[0,0.5],[1,0.5]];portConstraint=eastwest;fontSize=12;whiteSpace=wrap;html=1;" parent="CyxjTO3zzzVCpwui9LUG-64" vertex="1">
          <mxGeometry y="86" width="160" height="30" as="geometry" />
        </mxCell>
        <mxCell id="CyxjTO3zzzVCpwui9LUG-68" value="&lt;u&gt;week&lt;/u&gt;" style="text;strokeColor=none;fillColor=none;spacingLeft=4;spacingRight=4;overflow=hidden;rotatable=0;points=[[0,0.5],[1,0.5]];portConstraint=eastwest;fontSize=12;whiteSpace=wrap;html=1;" parent="CyxjTO3zzzVCpwui9LUG-64" vertex="1">
          <mxGeometry y="116" width="160" height="30" as="geometry" />
        </mxCell>
        <mxCell id="CyxjTO3zzzVCpwui9LUG-66" value="start_stat_id" style="text;strokeColor=none;fillColor=none;spacingLeft=4;spacingRight=4;overflow=hidden;rotatable=0;points=[[0,0.5],[1,0.5]];portConstraint=eastwest;fontSize=12;whiteSpace=wrap;html=1;" parent="CyxjTO3zzzVCpwui9LUG-64" vertex="1">
          <mxGeometry y="146" width="160" height="30" as="geometry" />
        </mxCell>
        <mxCell id="CyxjTO3zzzVCpwui9LUG-67" value="end_stat_id" style="text;strokeColor=none;fillColor=none;spacingLeft=4;spacingRight=4;overflow=hidden;rotatable=0;points=[[0,0.5],[1,0.5]];portConstraint=eastwest;fontSize=12;whiteSpace=wrap;html=1;" parent="CyxjTO3zzzVCpwui9LUG-64" vertex="1">
          <mxGeometry y="176" width="160" height="30" as="geometry" />
        </mxCell>
        <mxCell id="CyxjTO3zzzVCpwui9LUG-76" value="is_direct" style="text;strokeColor=none;fillColor=none;spacingLeft=4;spacingRight=4;overflow=hidden;rotatable=0;points=[[0,0.5],[1,0.5]];portConstraint=eastwest;fontSize=12;whiteSpace=wrap;html=1;" parent="CyxjTO3zzzVCpwui9LUG-64" vertex="1">
          <mxGeometry y="206" width="160" height="30" as="geometry" />
        </mxCell>
        <mxCell id="CyxjTO3zzzVCpwui9LUG-78" value="train_station" style="swimlane;fontStyle=2;childLayout=stackLayout;horizontal=1;startSize=26;horizontalStack=0;resizeParent=1;resizeParentMax=0;resizeLast=0;collapsible=1;marginBottom=0;align=center;fontSize=14;" parent="1" vertex="1">
          <mxGeometry x="798" y="360" width="160" height="206" as="geometry" />
        </mxCell>
        <mxCell id="CyxjTO3zzzVCpwui9LUG-79" value="&lt;u&gt;stat_id&lt;/u&gt;" style="text;strokeColor=none;fillColor=none;spacingLeft=4;spacingRight=4;overflow=hidden;rotatable=0;points=[[0,0.5],[1,0.5]];portConstraint=eastwest;fontSize=12;whiteSpace=wrap;html=1;" parent="CyxjTO3zzzVCpwui9LUG-78" vertex="1">
          <mxGeometry y="26" width="160" height="30" as="geometry" />
        </mxCell>
        <mxCell id="CyxjTO3zzzVCpwui9LUG-80" value="stat_name" style="text;strokeColor=none;fillColor=none;spacingLeft=4;spacingRight=4;overflow=hidden;rotatable=0;points=[[0,0.5],[1,0.5]];portConstraint=eastwest;fontSize=12;whiteSpace=wrap;html=1;" parent="CyxjTO3zzzVCpwui9LUG-78" vertex="1">
          <mxGeometry y="56" width="160" height="30" as="geometry" />
        </mxCell>
        <mxCell id="o-e8BTxkAoVlvlSonEaP-1" value="route_name" style="text;strokeColor=none;fillColor=none;spacingLeft=4;spacingRight=4;overflow=hidden;rotatable=0;points=[[0,0.5],[1,0.5]];portConstraint=eastwest;fontSize=12;whiteSpace=wrap;html=1;" vertex="1" parent="CyxjTO3zzzVCpwui9LUG-78">
          <mxGeometry y="86" width="160" height="30" as="geometry" />
        </mxCell>
        <mxCell id="CyxjTO3zzzVCpwui9LUG-81" value="lat&lt;br&gt;" style="text;strokeColor=none;fillColor=none;spacingLeft=4;spacingRight=4;overflow=hidden;rotatable=0;points=[[0,0.5],[1,0.5]];portConstraint=eastwest;fontSize=12;whiteSpace=wrap;html=1;" parent="CyxjTO3zzzVCpwui9LUG-78" vertex="1">
          <mxGeometry y="116" width="160" height="30" as="geometry" />
        </mxCell>
        <mxCell id="CyxjTO3zzzVCpwui9LUG-82" value="lng" style="text;strokeColor=none;fillColor=none;spacingLeft=4;spacingRight=4;overflow=hidden;rotatable=0;points=[[0,0.5],[1,0.5]];portConstraint=eastwest;fontSize=12;whiteSpace=wrap;html=1;" parent="CyxjTO3zzzVCpwui9LUG-78" vertex="1">
          <mxGeometry y="146" width="160" height="30" as="geometry" />
        </mxCell>
        <mxCell id="CyxjTO3zzzVCpwui9LUG-83" value="geohash" style="text;strokeColor=none;fillColor=none;spacingLeft=4;spacingRight=4;overflow=hidden;rotatable=0;points=[[0,0.5],[1,0.5]];portConstraint=eastwest;fontSize=12;whiteSpace=wrap;html=1;" parent="CyxjTO3zzzVCpwui9LUG-78" vertex="1">
          <mxGeometry y="176" width="160" height="30" as="geometry" />
        </mxCell>
        <mxCell id="CyxjTO3zzzVCpwui9LUG-84" value="train_time" style="swimlane;fontStyle=2;childLayout=stackLayout;horizontal=1;startSize=26;horizontalStack=0;resizeParent=1;resizeParentMax=0;resizeLast=0;collapsible=1;marginBottom=0;align=center;fontSize=14;" parent="1" vertex="1">
          <mxGeometry x="1038" y="70" width="160" height="236" as="geometry" />
        </mxCell>
        <mxCell id="CyxjTO3zzzVCpwui9LUG-89" value="&lt;u&gt;route_name&lt;/u&gt;" style="text;strokeColor=none;fillColor=none;spacingLeft=4;spacingRight=4;overflow=hidden;rotatable=0;points=[[0,0.5],[1,0.5]];portConstraint=eastwest;fontSize=12;whiteSpace=wrap;html=1;" parent="CyxjTO3zzzVCpwui9LUG-84" vertex="1">
          <mxGeometry y="26" width="160" height="30" as="geometry" />
        </mxCell>
        <mxCell id="CyxjTO3zzzVCpwui9LUG-85" value="&lt;u&gt;train_id&lt;/u&gt;" style="text;strokeColor=none;fillColor=none;spacingLeft=4;spacingRight=4;overflow=hidden;rotatable=0;points=[[0,0.5],[1,0.5]];portConstraint=eastwest;fontSize=12;whiteSpace=wrap;html=1;" parent="CyxjTO3zzzVCpwui9LUG-84" vertex="1">
          <mxGeometry y="56" width="160" height="30" as="geometry" />
        </mxCell>
        <mxCell id="CyxjTO3zzzVCpwui9LUG-91" value="&lt;u&gt;way&lt;/u&gt;" style="text;strokeColor=none;fillColor=none;spacingLeft=4;spacingRight=4;overflow=hidden;rotatable=0;points=[[0,0.5],[1,0.5]];portConstraint=eastwest;fontSize=12;whiteSpace=wrap;html=1;" parent="CyxjTO3zzzVCpwui9LUG-84" vertex="1">
          <mxGeometry y="86" width="160" height="30" as="geometry" />
        </mxCell>
        <mxCell id="CyxjTO3zzzVCpwui9LUG-92" value="&lt;u&gt;week&lt;/u&gt;" style="text;strokeColor=none;fillColor=none;spacingLeft=4;spacingRight=4;overflow=hidden;rotatable=0;points=[[0,0.5],[1,0.5]];portConstraint=eastwest;fontSize=12;whiteSpace=wrap;html=1;" parent="CyxjTO3zzzVCpwui9LUG-84" vertex="1">
          <mxGeometry y="116" width="160" height="30" as="geometry" />
        </mxCell>
        <mxCell id="CyxjTO3zzzVCpwui9LUG-86" value="order" style="text;strokeColor=none;fillColor=none;spacingLeft=4;spacingRight=4;overflow=hidden;rotatable=0;points=[[0,0.5],[1,0.5]];portConstraint=eastwest;fontSize=12;whiteSpace=wrap;html=1;fontStyle=4" parent="CyxjTO3zzzVCpwui9LUG-84" vertex="1">
          <mxGeometry y="146" width="160" height="30" as="geometry" />
        </mxCell>
        <mxCell id="CyxjTO3zzzVCpwui9LUG-90" value="stat_id" style="text;strokeColor=none;fillColor=none;spacingLeft=4;spacingRight=4;overflow=hidden;rotatable=0;points=[[0,0.5],[1,0.5]];portConstraint=eastwest;fontSize=12;whiteSpace=wrap;html=1;" parent="CyxjTO3zzzVCpwui9LUG-84" vertex="1">
          <mxGeometry y="176" width="160" height="30" as="geometry" />
        </mxCell>
        <mxCell id="CyxjTO3zzzVCpwui9LUG-95" value="time" style="text;strokeColor=none;fillColor=none;spacingLeft=4;spacingRight=4;overflow=hidden;rotatable=0;points=[[0,0.5],[1,0.5]];portConstraint=eastwest;fontSize=12;whiteSpace=wrap;html=1;" parent="CyxjTO3zzzVCpwui9LUG-84" vertex="1">
          <mxGeometry y="206" width="160" height="30" as="geometry" />
        </mxCell>
        <mxCell id="CyxjTO3zzzVCpwui9LUG-96" value="" style="endArrow=classic;html=1;rounded=0;exitX=-0.012;exitY=0.233;exitDx=0;exitDy=0;exitPerimeter=0;entryX=1;entryY=0.5;entryDx=0;entryDy=0;" parent="1" source="CyxjTO3zzzVCpwui9LUG-45" target="CyxjTO3zzzVCpwui9LUG-53" edge="1">
          <mxGeometry width="50" height="50" relative="1" as="geometry">
            <mxPoint x="450" y="130" as="sourcePoint" />
            <mxPoint x="500" y="230" as="targetPoint" />
            <Array as="points">
              <mxPoint x="490" y="243" />
              <mxPoint x="490" y="130" />
            </Array>
          </mxGeometry>
        </mxCell>
        <mxCell id="CyxjTO3zzzVCpwui9LUG-97" value="" style="endArrow=classic;html=1;rounded=0;exitX=-0.012;exitY=0.233;exitDx=0;exitDy=0;exitPerimeter=0;entryX=1;entryY=0.5;entryDx=0;entryDy=0;" parent="1" target="CyxjTO3zzzVCpwui9LUG-39" edge="1">
          <mxGeometry width="50" height="50" relative="1" as="geometry">
            <mxPoint x="530" y="313" as="sourcePoint" />
            <mxPoint x="452" y="201" as="targetPoint" />
            <Array as="points">
              <mxPoint x="492" y="313" />
              <mxPoint x="492" y="341" />
            </Array>
          </mxGeometry>
        </mxCell>
        <mxCell id="CyxjTO3zzzVCpwui9LUG-100" value="" style="endArrow=classic;html=1;rounded=0;exitX=-0.012;exitY=0.233;exitDx=0;exitDy=0;exitPerimeter=0;" parent="1" edge="1">
          <mxGeometry width="50" height="50" relative="1" as="geometry">
            <mxPoint x="1038" y="143" as="sourcePoint" />
            <mxPoint x="958" y="143" as="targetPoint" />
            <Array as="points">
              <mxPoint x="1000" y="143" />
            </Array>
          </mxGeometry>
        </mxCell>
        <mxCell id="CyxjTO3zzzVCpwui9LUG-101" value="" style="edgeStyle=orthogonalEdgeStyle;rounded=0;orthogonalLoop=1;jettySize=auto;html=1;entryX=1;entryY=0.5;entryDx=0;entryDy=0;" parent="1" source="CyxjTO3zzzVCpwui9LUG-89" target="CyxjTO3zzzVCpwui9LUG-77" edge="1">
          <mxGeometry relative="1" as="geometry" />
        </mxCell>
        <mxCell id="CyxjTO3zzzVCpwui9LUG-104" value="" style="endArrow=classic;html=1;rounded=0;entryX=1;entryY=0.5;entryDx=0;entryDy=0;" parent="1" target="CyxjTO3zzzVCpwui9LUG-79" edge="1">
          <mxGeometry width="50" height="50" relative="1" as="geometry">
            <mxPoint x="1038" y="260" as="sourcePoint" />
            <mxPoint x="960" y="151" as="targetPoint" />
            <Array as="points">
              <mxPoint x="998" y="260" />
              <mxPoint x="998" y="401" />
            </Array>
          </mxGeometry>
        </mxCell>
        <mxCell id="CyxjTO3zzzVCpwui9LUG-105" value="" style="endArrow=classic;html=1;rounded=0;exitX=-0.012;exitY=0.233;exitDx=0;exitDy=0;exitPerimeter=0;entryX=0;entryY=0.5;entryDx=0;entryDy=0;" parent="1" target="CyxjTO3zzzVCpwui9LUG-79" edge="1">
          <mxGeometry width="50" height="50" relative="1" as="geometry">
            <mxPoint x="798" y="233" as="sourcePoint" />
            <mxPoint x="728" y="400" as="targetPoint" />
            <Array as="points">
              <mxPoint x="760" y="233" />
              <mxPoint x="760" y="401" />
            </Array>
          </mxGeometry>
        </mxCell>
        <mxCell id="CyxjTO3zzzVCpwui9LUG-107" value="" style="endArrow=none;html=1;rounded=0;" parent="1" edge="1">
          <mxGeometry relative="1" as="geometry">
            <mxPoint x="761" y="260" as="sourcePoint" />
            <mxPoint x="798" y="260" as="targetPoint" />
          </mxGeometry>
        </mxCell>
        <mxCell id="CyxjTO3zzzVCpwui9LUG-108" value="" style="endArrow=classic;html=1;rounded=0;exitX=-0.012;exitY=0.233;exitDx=0;exitDy=0;exitPerimeter=0;" parent="1" edge="1">
          <mxGeometry width="50" height="50" relative="1" as="geometry">
            <mxPoint x="1038" y="173" as="sourcePoint" />
            <mxPoint x="958" y="173" as="targetPoint" />
            <Array as="points">
              <mxPoint x="1000" y="173" />
            </Array>
          </mxGeometry>
        </mxCell>
        <mxCell id="CyxjTO3zzzVCpwui9LUG-109" value="" style="endArrow=classic;html=1;rounded=0;exitX=-0.012;exitY=0.233;exitDx=0;exitDy=0;exitPerimeter=0;" parent="1" edge="1">
          <mxGeometry width="50" height="50" relative="1" as="geometry">
            <mxPoint x="1038" y="202" as="sourcePoint" />
            <mxPoint x="958" y="202" as="targetPoint" />
            <Array as="points">
              <mxPoint x="1000" y="202" />
            </Array>
          </mxGeometry>
        </mxCell>
      </root>
    </mxGraphModel>
  </diagram>
</mxfile>
